<?xml version="1.0" encoding="UTF-8" standalone="no" ?>
<!DOCTYPE svg PUBLIC "-//W3C//DTD SVG 1.1//EN" "http://www.w3.org/Graphics/SVG/1.1/DTD/svg11.dtd">
<svg xmlns="http://www.w3.org/2000/svg" xmlns:xlink="http://www.w3.org/1999/xlink" version="1.1" width="100" height="100" viewBox="0 0 100 100" xml:space="preserve">
<desc>Created with Fabric.js 4.6.0</desc>
<defs>
</defs>
<g transform="matrix(0.19 0 0 0.19 50 50)" id="o2FJzfP2hMoN11RI8g-Mi"  >
<linearGradient id="SVGID_2678" gradientUnits="userSpaceOnUse" gradientTransform="matrix(1 0 0 1 -264.03 -256.03)"  x1="-1214.798242164055" y1="286.29771751975596" x2="702.4960367271932" y2="286.29771751975596">
<stop offset="0%" style="stop-color:#000000;stop-opacity: 1"/>
<stop offset="38.885399300778275%" style="stop-color:#D3A76C;stop-opacity: 1"/>
<stop offset="52.2343956557998%" style="stop-color:#FFF312;stop-opacity: 1"/>
<stop offset="59.66779260077647%" style="stop-color:#F2FCA9;stop-opacity: 1"/>
<stop offset="75.91911292056703%" style="stop-color:#FFF312;stop-opacity: 1"/>
<stop offset="97.14620201214854%" style="stop-color:#6F1F1F;stop-opacity: 1"/>
<stop offset="100%" style="stop-color:#000000;stop-opacity: 1"/>
</linearGradient>
<path style="stroke: none; stroke-width: 1; stroke-dasharray: none; stroke-linecap: butt; stroke-dashoffset: 0; stroke-linejoin: miter; stroke-miterlimit: 4; fill: url(#SVGID_2678); fill-rule: nonzero; opacity: 1;" vector-effect="non-scaling-stroke"  transform=" translate(0, 0)" d="M 28.72818 -238.02866 C 23.428179999999998 -249.02866 12.228179999999998 -256.02866 -0.07182000000000244 -256.02866 C -12.371820000000003 -256.02866 -23.47182 -249.02866 -28.871820000000003 -238.02866 L -93.17182 -105.72865999999999 L -236.77182 -84.52865999999999 C -248.77182 -82.72865999999999 -258.77182 -74.32865999999999 -262.47182 -62.828659999999985 C -266.17181999999997 -51.328659999999985 -263.17181999999997 -38.62865999999998 -254.57181999999997 -30.128659999999982 L -150.37181999999996 72.97134000000001 L -174.97181999999995 218.67134 C -176.97181999999995 230.67134 -171.97181999999995 242.87133999999998 -162.07181999999995 249.97134 C -152.17181999999994 257.07134 -139.07181999999995 257.97134 -128.27181999999993 252.27134 L 0.028180000000077143 183.77134 L 128.3281800000001 252.27134 C 139.1281800000001 257.97134 152.2281800000001 257.17134 162.1281800000001 249.97134 C 172.0281800000001 242.77134 177.0281800000001 230.67134 175.0281800000001 218.67134 L 150.32818000000012 72.97134 L 254.52818000000013 -30.128659999999996 C 263.12818000000016 -38.628659999999996 266.2281800000001 -51.32866 262.4281800000001 -62.82866 C 258.6281800000001 -74.32866 248.72818000000012 -82.72865999999999 236.72818000000012 -84.52866 L 93.02818000000013 -105.72866 z" stroke-linecap="round" />
</g>
</svg>